<svg width="450" height="22" viewBox="0 0 450 22" fill="none" xmlns="http://www.w3.org/2000/svg">
<g clip-path="url(#clip0_3498_116)">
<path d="M2.5 12C2.5 12.9849 2.69399 13.9602 3.0709 14.8701C3.44781 15.7801 4.00026 16.6069 4.6967 17.3033C5.39314 17.9997 6.21993 18.5522 7.12987 18.9291C8.03982 19.306 9.01509 19.5 10 19.5C10.9849 19.5 11.9602 19.306 12.8701 18.9291C13.7801 18.5522 14.6069 17.9997 15.3033 17.3033C15.9997 16.6069 16.5522 15.7801 16.9291 14.8701C17.306 13.9602 17.5 12.9849 17.5 12C17.5 11.0151 17.306 10.0398 16.9291 9.12987C16.5522 8.21993 15.9997 7.39314 15.3033 6.6967C14.6069 6.00026 13.7801 5.44781 12.8701 5.0709C11.9602 4.69399 10.9849 4.5 10 4.5C9.01509 4.5 8.03982 4.69399 7.12987 5.0709C6.21993 5.44781 5.39314 6.00026 4.6967 6.6967C4.00026 7.39314 3.44781 8.21993 3.0709 9.12987C2.69399 10.0398 2.5 11.0151 2.5 12Z" stroke="#959595" stroke-width="2" stroke-linecap="round" stroke-linejoin="round"/>
<path d="M11.6667 10.125C11.1809 9.69811 10.5493 9.47488 9.90321 9.50173C9.25709 9.52858 8.64618 9.80344 8.19752 10.2692C7.74952 10.734 7.49921 11.3544 7.49921 12C7.49921 12.6456 7.74952 13.266 8.19752 13.7308C8.64618 14.1966 9.25709 14.4714 9.90321 14.4983C10.5493 14.5251 11.1809 14.3019 11.6667 13.875" stroke="#959595" stroke-width="2" stroke-linecap="round" stroke-linejoin="round"/>
</g>
<path d="M21.3551 18V16.8494L25.6761 12.1193C26.1832 11.5653 26.6009 11.0838 26.929 10.6747C27.2571 10.2614 27.5 9.87358 27.6577 9.51136C27.8196 9.14489 27.9006 8.76136 27.9006 8.3608C27.9006 7.90057 27.7898 7.50213 27.5682 7.16548C27.3509 6.82883 27.0526 6.56889 26.6733 6.38565C26.294 6.20241 25.8679 6.1108 25.3949 6.1108C24.892 6.1108 24.4531 6.2152 24.0781 6.42401C23.7074 6.62855 23.4197 6.91619 23.2152 7.28693C23.0149 7.65767 22.9148 8.09233 22.9148 8.59091H21.4062C21.4062 7.82386 21.5831 7.15057 21.9368 6.57102C22.2905 5.99148 22.772 5.53977 23.3814 5.21591C23.995 4.89204 24.6832 4.73011 25.446 4.73011C26.2131 4.73011 26.8928 4.89204 27.4851 5.21591C28.0774 5.53977 28.5419 5.97656 28.8786 6.52628C29.2152 7.07599 29.3835 7.6875 29.3835 8.3608C29.3835 8.84233 29.2962 9.31321 29.1214 9.77344C28.951 10.2294 28.6527 10.7386 28.2266 11.3011C27.8047 11.8594 27.2188 12.5412 26.4688 13.3466L23.5284 16.4915V16.5938H29.6136V18H21.3551ZM36.5234 18.179C35.5604 18.179 34.7401 17.9169 34.0625 17.3928C33.3849 16.8643 32.8672 16.0994 32.5092 15.098C32.1513 14.0923 31.9723 12.8778 31.9723 11.4545C31.9723 10.0398 32.1513 8.83168 32.5092 7.83026C32.8714 6.82457 33.3913 6.05753 34.0689 5.52912C34.7507 4.99645 35.5689 4.73011 36.5234 4.73011C37.478 4.73011 38.294 4.99645 38.9716 5.52912C39.6534 6.05753 40.1733 6.82457 40.5312 7.83026C40.8935 8.83168 41.0746 10.0398 41.0746 11.4545C41.0746 12.8778 40.8956 14.0923 40.5376 15.098C40.1797 16.0994 39.6619 16.8643 38.9844 17.3928C38.3068 17.9169 37.4865 18.179 36.5234 18.179ZM36.5234 16.7727C37.478 16.7727 38.2195 16.3125 38.7479 15.392C39.2763 14.4716 39.5405 13.1591 39.5405 11.4545C39.5405 10.321 39.419 9.35582 39.1761 8.55895C38.9375 7.76207 38.5923 7.15483 38.1406 6.73722C37.6932 6.3196 37.1541 6.1108 36.5234 6.1108C35.5774 6.1108 34.8381 6.57741 34.3054 7.51065C33.7727 8.43963 33.5064 9.75426 33.5064 11.4545C33.5064 12.5881 33.6257 13.5511 33.8643 14.3438C34.103 15.1364 34.446 15.7393 34.8935 16.1527C35.3452 16.5661 35.8885 16.7727 36.5234 16.7727ZM43.5036 18V16.8494L47.8246 12.1193C48.3317 11.5653 48.7493 11.0838 49.0774 10.6747C49.4055 10.2614 49.6484 9.87358 49.8061 9.51136C49.968 9.14489 50.049 8.76136 50.049 8.3608C50.049 7.90057 49.9382 7.50213 49.7166 7.16548C49.4993 6.82883 49.201 6.56889 48.8217 6.38565C48.4425 6.20241 48.0163 6.1108 47.5433 6.1108C47.0405 6.1108 46.6016 6.2152 46.2266 6.42401C45.8558 6.62855 45.5682 6.91619 45.3636 7.28693C45.1634 7.65767 45.0632 8.09233 45.0632 8.59091H43.5547C43.5547 7.82386 43.7315 7.15057 44.0852 6.57102C44.4389 5.99148 44.9205 5.53977 45.5298 5.21591C46.1435 4.89204 46.8317 4.73011 47.5945 4.73011C48.3615 4.73011 49.0412 4.89204 49.6335 5.21591C50.2259 5.53977 50.6903 5.97656 51.027 6.52628C51.3636 7.07599 51.532 7.6875 51.532 8.3608C51.532 8.84233 51.4446 9.31321 51.2699 9.77344C51.0994 10.2294 50.8011 10.7386 50.375 11.3011C49.9531 11.8594 49.3672 12.5412 48.6172 13.3466L45.6768 16.4915V16.5938H51.7621V18H43.5036ZM58.4929 18.179C57.7429 18.179 57.0675 18.0298 56.4666 17.7315C55.8658 17.4332 55.3842 17.0241 55.022 16.5043C54.6598 15.9844 54.4616 15.392 54.4276 14.7273H55.9616C56.0213 15.3196 56.2898 15.8097 56.767 16.1974C57.2486 16.581 57.8239 16.7727 58.4929 16.7727C59.0298 16.7727 59.5071 16.647 59.9247 16.3956C60.3466 16.1442 60.6768 15.799 60.9155 15.3601C61.1584 14.9169 61.2798 14.4162 61.2798 13.858C61.2798 13.2869 61.1541 12.7777 60.9027 12.3303C60.6555 11.8786 60.3146 11.5227 59.88 11.2628C59.4453 11.0028 58.9489 10.8707 58.3906 10.8665C57.9901 10.8622 57.5788 10.924 57.157 11.0518C56.7351 11.1754 56.3878 11.3352 56.1151 11.5312L54.6321 11.3523L55.4247 4.90909H62.2259V6.31534H56.7543L56.294 10.1761H56.3707C56.6392 9.96307 56.9759 9.78622 57.3807 9.6456C57.7855 9.50497 58.2074 9.43466 58.6463 9.43466C59.4474 9.43466 60.1612 9.62642 60.7876 10.0099C61.4183 10.3892 61.9126 10.9091 62.2706 11.5696C62.6328 12.2301 62.8139 12.9844 62.8139 13.8324C62.8139 14.6676 62.6264 15.4134 62.2514 16.0696C61.8807 16.7216 61.3693 17.2372 60.7173 17.6165C60.0653 17.9915 59.3239 18.179 58.4929 18.179ZM70.6458 18V4.90909H78.4952V6.31534H72.231V10.7386H77.9071V12.1449H72.231V18H70.6458ZM83.8949 18.2301C83.2727 18.2301 82.7081 18.1129 82.201 17.8786C81.6939 17.6399 81.2912 17.2969 80.9929 16.8494C80.6946 16.3977 80.5455 15.8523 80.5455 15.2131C80.5455 14.6506 80.6563 14.1946 80.8778 13.8452C81.0994 13.4915 81.3956 13.2145 81.7663 13.0142C82.1371 12.8139 82.5462 12.6648 82.9936 12.5668C83.4453 12.4645 83.8991 12.3835 84.3551 12.3239C84.9517 12.2472 85.4354 12.1896 85.8061 12.1513C86.1811 12.1087 86.4538 12.0384 86.6243 11.9403C86.799 11.8423 86.8864 11.6719 86.8864 11.429V11.3778C86.8864 10.7472 86.7138 10.2571 86.3686 9.90767C86.0277 9.55824 85.5099 9.38352 84.8153 9.38352C84.0952 9.38352 83.5305 9.54119 83.1214 9.85653C82.7124 10.1719 82.4247 10.5085 82.2585 10.8665L80.8267 10.3551C81.0824 9.75852 81.4233 9.29403 81.8494 8.96165C82.2798 8.625 82.7486 8.39062 83.2557 8.25852C83.767 8.12216 84.2699 8.05398 84.7642 8.05398C85.0795 8.05398 85.4418 8.09233 85.8509 8.16903C86.2642 8.24148 86.6626 8.39276 87.0462 8.62287C87.4339 8.85298 87.7557 9.20028 88.0114 9.66477C88.267 10.1293 88.3949 10.7514 88.3949 11.5312V18H86.8864V16.6705H86.8097C86.7074 16.8835 86.5369 17.1115 86.2983 17.3544C86.0597 17.5973 85.7422 17.804 85.3459 17.9744C84.9496 18.1449 84.4659 18.2301 83.8949 18.2301ZM84.125 16.875C84.7216 16.875 85.2244 16.7578 85.6335 16.5234C86.0469 16.2891 86.358 15.9865 86.5668 15.6158C86.7798 15.245 86.8864 14.8551 86.8864 14.446V13.0653C86.8224 13.142 86.6818 13.2124 86.4645 13.2763C86.2514 13.3359 86.0043 13.3892 85.723 13.4361C85.446 13.4787 85.1754 13.517 84.9112 13.5511C84.6513 13.581 84.4403 13.6065 84.2784 13.6278C83.8864 13.679 83.5199 13.7621 83.179 13.8771C82.8423 13.9879 82.5696 14.1562 82.3608 14.3821C82.1563 14.6037 82.054 14.9062 82.054 15.2898C82.054 15.8139 82.2479 16.2102 82.6357 16.4787C83.0277 16.7429 83.5241 16.875 84.125 16.875ZM95.4181 8.18182V9.46023H90.3301V8.18182H95.4181ZM91.813 5.82955H93.3216V15.1875C93.3216 15.6136 93.3833 15.9332 93.5069 16.1463C93.6348 16.3551 93.7967 16.4957 93.9927 16.5682C94.193 16.6364 94.4039 16.6705 94.6255 16.6705C94.7917 16.6705 94.9281 16.6619 95.0346 16.6449C95.1412 16.6236 95.2264 16.6065 95.2903 16.5938L95.5971 17.9489C95.4949 17.9872 95.3521 18.0256 95.1689 18.0639C94.9856 18.1065 94.7534 18.1278 94.4721 18.1278C94.046 18.1278 93.6284 18.0362 93.2193 17.853C92.8145 17.6697 92.4778 17.3906 92.2093 17.0156C91.9451 16.6406 91.813 16.1676 91.813 15.5966V5.82955ZM101.957 8.18182V9.46023H96.8691V8.18182H101.957ZM98.3521 5.82955H99.8606V15.1875C99.8606 15.6136 99.9224 15.9332 100.046 16.1463C100.174 16.3551 100.336 16.4957 100.532 16.5682C100.732 16.6364 100.943 16.6705 101.165 16.6705C101.331 16.6705 101.467 16.6619 101.574 16.6449C101.68 16.6236 101.765 16.6065 101.829 16.5938L102.136 17.9489C102.034 17.9872 101.891 18.0256 101.708 18.0639C101.525 18.1065 101.292 18.1278 101.011 18.1278C100.585 18.1278 100.167 18.0362 99.7583 17.853C99.3535 17.6697 99.0169 17.3906 98.7484 17.0156C98.4842 16.6406 98.3521 16.1676 98.3521 15.5966V5.82955ZM107.116 18.2301C106.493 18.2301 105.929 18.1129 105.422 17.8786C104.915 17.6399 104.512 17.2969 104.214 16.8494C103.915 16.3977 103.766 15.8523 103.766 15.2131C103.766 14.6506 103.877 14.1946 104.099 13.8452C104.32 13.4915 104.616 13.2145 104.987 13.0142C105.358 12.8139 105.767 12.6648 106.214 12.5668C106.666 12.4645 107.12 12.3835 107.576 12.3239C108.172 12.2472 108.656 12.1896 109.027 12.1513C109.402 12.1087 109.675 12.0384 109.845 11.9403C110.02 11.8423 110.107 11.6719 110.107 11.429V11.3778C110.107 10.7472 109.934 10.2571 109.589 9.90767C109.248 9.55824 108.731 9.38352 108.036 9.38352C107.316 9.38352 106.751 9.54119 106.342 9.85653C105.933 10.1719 105.645 10.5085 105.479 10.8665L104.047 10.3551C104.303 9.75852 104.644 9.29403 105.07 8.96165C105.501 8.625 105.969 8.39062 106.476 8.25852C106.988 8.12216 107.491 8.05398 107.985 8.05398C108.3 8.05398 108.662 8.09233 109.072 8.16903C109.485 8.24148 109.883 8.39276 110.267 8.62287C110.655 8.85298 110.976 9.20028 111.232 9.66477C111.488 10.1293 111.616 10.7514 111.616 11.5312V18H110.107V16.6705H110.03C109.928 16.8835 109.758 17.1115 109.519 17.3544C109.28 17.5973 108.963 17.804 108.567 17.9744C108.17 18.1449 107.687 18.2301 107.116 18.2301ZM107.346 16.875C107.942 16.875 108.445 16.7578 108.854 16.5234C109.268 16.2891 109.579 15.9865 109.787 15.6158C110.001 15.245 110.107 14.8551 110.107 14.446V13.0653C110.043 13.142 109.903 13.2124 109.685 13.2763C109.472 13.3359 109.225 13.3892 108.944 13.4361C108.667 13.4787 108.396 13.517 108.132 13.5511C107.872 13.581 107.661 13.6065 107.499 13.6278C107.107 13.679 106.741 13.7621 106.4 13.8771C106.063 13.9879 105.79 14.1562 105.581 14.3821C105.377 14.6037 105.275 14.9062 105.275 15.2898C105.275 15.8139 105.469 16.2102 105.856 16.4787C106.248 16.7429 106.745 16.875 107.346 16.875ZM115.877 12.0938V18H114.369V4.90909H115.877V9.71591H116.005C116.235 9.20881 116.581 8.80611 117.041 8.50781C117.505 8.20526 118.123 8.05398 118.895 8.05398C119.564 8.05398 120.15 8.18821 120.652 8.45668C121.155 8.72088 121.545 9.12784 121.822 9.67756C122.103 10.223 122.244 10.9176 122.244 11.7614V18H120.735V11.8636C120.735 11.0838 120.533 10.4808 120.128 10.0547C119.728 9.62429 119.172 9.40909 118.46 9.40909C117.966 9.40909 117.522 9.51349 117.13 9.7223C116.743 9.93111 116.436 10.2358 116.21 10.6364C115.988 11.0369 115.877 11.5227 115.877 12.0938ZM130.808 18H129.146L133.953 4.90909H135.589L140.396 18H138.734L134.822 6.98011H134.72L130.808 18ZM131.421 12.8864H138.12V14.2926H131.421V12.8864ZM142.435 18V4.90909H143.943V9.74148H144.071C144.182 9.57102 144.335 9.35369 144.531 9.08949C144.732 8.82102 145.017 8.58239 145.388 8.37358C145.763 8.16051 146.27 8.05398 146.909 8.05398C147.736 8.05398 148.465 8.26065 149.095 8.67401C149.726 9.08736 150.218 9.6733 150.572 10.4318C150.926 11.1903 151.102 12.0852 151.102 13.1165C151.102 14.1562 150.926 15.0575 150.572 15.8203C150.218 16.5788 149.728 17.1669 149.102 17.5845C148.475 17.9979 147.753 18.2045 146.935 18.2045C146.304 18.2045 145.799 18.1001 145.42 17.8913C145.041 17.6783 144.749 17.4375 144.544 17.169C144.34 16.8963 144.182 16.6705 144.071 16.4915H143.892V18H142.435ZM143.918 13.0909C143.918 13.8324 144.026 14.4865 144.244 15.0533C144.461 15.6158 144.779 16.0568 145.196 16.3764C145.614 16.6918 146.125 16.8494 146.73 16.8494C147.361 16.8494 147.887 16.6832 148.309 16.3509C148.735 16.0142 149.055 15.5625 149.268 14.9957C149.485 14.4247 149.594 13.7898 149.594 13.0909C149.594 12.4006 149.487 11.7784 149.274 11.2244C149.066 10.6662 148.748 10.2251 148.322 9.90128C147.9 9.57315 147.369 9.40909 146.73 9.40909C146.117 9.40909 145.601 9.56463 145.183 9.87571C144.766 10.1825 144.45 10.6129 144.237 11.1669C144.024 11.7166 143.918 12.358 143.918 13.0909ZM157.117 18.2045C156.299 18.2045 155.577 17.9979 154.95 17.5845C154.324 17.1669 153.834 16.5788 153.48 15.8203C153.127 15.0575 152.95 14.1562 152.95 13.1165C152.95 12.0852 153.127 11.1903 153.48 10.4318C153.834 9.6733 154.326 9.08736 154.957 8.67401C155.588 8.26065 156.316 8.05398 157.143 8.05398C157.782 8.05398 158.287 8.16051 158.658 8.37358C159.033 8.58239 159.318 8.82102 159.514 9.08949C159.715 9.35369 159.87 9.57102 159.981 9.74148H160.109V4.90909H161.617V18H160.16V16.4915H159.981C159.87 16.6705 159.713 16.8963 159.508 17.169C159.303 17.4375 159.012 17.6783 158.632 17.8913C158.253 18.1001 157.748 18.2045 157.117 18.2045ZM157.322 16.8494C157.927 16.8494 158.438 16.6918 158.856 16.3764C159.274 16.0568 159.591 15.6158 159.808 15.0533C160.026 14.4865 160.134 13.8324 160.134 13.0909C160.134 12.358 160.028 11.7166 159.815 11.1669C159.602 10.6129 159.286 10.1825 158.869 9.87571C158.451 9.56463 157.936 9.40909 157.322 9.40909C156.683 9.40909 156.15 9.57315 155.724 9.90128C155.302 10.2251 154.985 10.6662 154.771 11.2244C154.563 11.7784 154.458 12.4006 154.458 13.0909C154.458 13.7898 154.565 14.4247 154.778 14.9957C154.995 15.5625 155.315 16.0142 155.737 16.3509C156.163 16.6832 156.691 16.8494 157.322 16.8494ZM170.777 13.9858V8.18182H172.286V18H170.777V16.3381H170.675C170.445 16.8366 170.087 17.2607 169.601 17.6101C169.115 17.9553 168.502 18.1278 167.76 18.1278C167.146 18.1278 166.601 17.9936 166.124 17.7251C165.646 17.4524 165.271 17.0433 164.999 16.4979C164.726 15.9482 164.59 15.2557 164.59 14.4205V8.18182H166.098V14.3182C166.098 15.0341 166.298 15.6051 166.699 16.0312C167.104 16.4574 167.619 16.6705 168.246 16.6705C168.621 16.6705 169.002 16.5746 169.39 16.3828C169.782 16.1911 170.11 15.897 170.374 15.5007C170.643 15.1044 170.777 14.5994 170.777 13.9858ZM176.557 4.90909V18H175.049V4.90909H176.557ZM184.587 4.90909H186.479L190.928 15.7756H191.081L195.53 4.90909H197.422V18H195.939V8.05398H195.812L191.721 18H190.289L186.198 8.05398H186.07V18H184.587V4.90909ZM203.286 18.2301C202.663 18.2301 202.099 18.1129 201.592 17.8786C201.085 17.6399 200.682 17.2969 200.384 16.8494C200.085 16.3977 199.936 15.8523 199.936 15.2131C199.936 14.6506 200.047 14.1946 200.268 13.8452C200.49 13.4915 200.786 13.2145 201.157 13.0142C201.528 12.8139 201.937 12.6648 202.384 12.5668C202.836 12.4645 203.29 12.3835 203.746 12.3239C204.342 12.2472 204.826 12.1896 205.197 12.1513C205.572 12.1087 205.844 12.0384 206.015 11.9403C206.19 11.8423 206.277 11.6719 206.277 11.429V11.3778C206.277 10.7472 206.104 10.2571 205.759 9.90767C205.418 9.55824 204.901 9.38352 204.206 9.38352C203.486 9.38352 202.921 9.54119 202.512 9.85653C202.103 10.1719 201.815 10.5085 201.649 10.8665L200.217 10.3551C200.473 9.75852 200.814 9.29403 201.24 8.96165C201.67 8.625 202.139 8.39062 202.646 8.25852C203.158 8.12216 203.661 8.05398 204.155 8.05398C204.47 8.05398 204.832 8.09233 205.241 8.16903C205.655 8.24148 206.053 8.39276 206.437 8.62287C206.825 8.85298 207.146 9.20028 207.402 9.66477C207.658 10.1293 207.786 10.7514 207.786 11.5312V18H206.277V16.6705H206.2C206.098 16.8835 205.928 17.1115 205.689 17.3544C205.45 17.5973 205.133 17.804 204.737 17.9744C204.34 18.1449 203.857 18.2301 203.286 18.2301ZM203.516 16.875C204.112 16.875 204.615 16.7578 205.024 16.5234C205.438 16.2891 205.749 15.9865 205.957 15.6158C206.17 15.245 206.277 14.8551 206.277 14.446V13.0653C206.213 13.142 206.072 13.2124 205.855 13.2763C205.642 13.3359 205.395 13.3892 205.114 13.4361C204.837 13.4787 204.566 13.517 204.302 13.5511C204.042 13.581 203.831 13.6065 203.669 13.6278C203.277 13.679 202.911 13.7621 202.57 13.8771C202.233 13.9879 201.96 14.1562 201.751 14.3821C201.547 14.6037 201.445 14.9062 201.445 15.2898C201.445 15.8139 201.638 16.2102 202.026 16.4787C202.418 16.7429 202.915 16.875 203.516 16.875ZM212.047 4.90909V18H210.539V4.90909H212.047ZM214.81 18V8.18182H216.319V18H214.81ZM215.577 6.54545C215.283 6.54545 215.03 6.44531 214.817 6.24503C214.608 6.04474 214.504 5.80398 214.504 5.52273C214.504 5.24148 214.608 5.00071 214.817 4.80043C215.03 4.60014 215.283 4.5 215.577 4.5C215.871 4.5 216.123 4.60014 216.332 4.80043C216.545 5.00071 216.651 5.24148 216.651 5.52273C216.651 5.80398 216.545 6.04474 216.332 6.24503C216.123 6.44531 215.871 6.54545 215.577 6.54545ZM220.488 14.4205L220.463 12.554H220.769L225.065 8.18182H226.931L222.355 12.8097H222.227L220.488 14.4205ZM219.082 18V4.90909H220.59V18H219.082ZM225.32 18L221.485 13.142L222.559 12.0938L227.238 18H225.32ZM229.972 18.1023C229.657 18.1023 229.386 17.9893 229.161 17.7635C228.935 17.5376 228.822 17.267 228.822 16.9517C228.822 16.6364 228.935 16.3658 229.161 16.1399C229.386 15.9141 229.657 15.8011 229.972 15.8011C230.288 15.8011 230.558 15.9141 230.784 16.1399C231.01 16.3658 231.123 16.6364 231.123 16.9517C231.123 17.1605 231.07 17.3523 230.963 17.527C230.861 17.7017 230.722 17.8423 230.548 17.9489C230.377 18.0511 230.185 18.1023 229.972 18.1023ZM239.634 18H237.972L242.779 4.90909H244.415L249.222 18H247.56L243.648 6.98011H243.546L239.634 18ZM240.248 12.8864H246.946V14.2926H240.248V12.8864ZM252.565 4.90909V18H251.056V4.90909H252.565ZM256.836 4.90909V18H255.328V4.90909H256.836ZM264.662 18V8.18182H266.119V9.66477H266.222C266.401 9.17898 266.724 8.7848 267.193 8.48224C267.662 8.17969 268.19 8.02841 268.778 8.02841C268.889 8.02841 269.028 8.03054 269.194 8.0348C269.36 8.03906 269.486 8.04545 269.571 8.05398V9.58807C269.52 9.57528 269.403 9.55611 269.219 9.53054C269.04 9.50071 268.851 9.4858 268.651 9.4858C268.173 9.4858 267.747 9.58594 267.372 9.78622C267.001 9.98224 266.707 10.255 266.49 10.6044C266.277 10.9496 266.17 11.3437 266.17 11.7869V18H264.662ZM271.359 18V8.18182H272.868V18H271.359ZM272.126 6.54545C271.832 6.54545 271.579 6.44531 271.366 6.24503C271.157 6.04474 271.052 5.80398 271.052 5.52273C271.052 5.24148 271.157 5.00071 271.366 4.80043C271.579 4.60014 271.832 4.5 272.126 4.5C272.42 4.5 272.672 4.60014 272.881 4.80043C273.094 5.00071 273.2 5.24148 273.2 5.52273C273.2 5.80398 273.094 6.04474 272.881 6.24503C272.672 6.44531 272.42 6.54545 272.126 6.54545ZM279.594 21.8864C278.865 21.8864 278.239 21.7926 277.714 21.6051C277.19 21.4219 276.754 21.179 276.404 20.8764C276.059 20.5781 275.784 20.2585 275.58 19.9176L276.781 19.0739C276.918 19.2528 277.09 19.4574 277.299 19.6875C277.508 19.9219 277.793 20.1243 278.156 20.2947C278.522 20.4695 279.001 20.5568 279.594 20.5568C280.386 20.5568 281.04 20.3651 281.556 19.9815C282.072 19.598 282.33 18.9972 282.33 18.179V16.1847H282.202C282.091 16.3636 281.933 16.5852 281.729 16.8494C281.528 17.1094 281.239 17.3416 280.859 17.5462C280.484 17.7464 279.977 17.8466 279.338 17.8466C278.545 17.8466 277.834 17.6591 277.203 17.2841C276.577 16.9091 276.08 16.3636 275.714 15.6477C275.352 14.9318 275.17 14.0625 275.17 13.0398C275.17 12.0341 275.347 11.1584 275.701 10.4126C276.055 9.66264 276.547 9.0831 277.178 8.67401C277.808 8.26065 278.537 8.05398 279.364 8.05398C280.003 8.05398 280.51 8.16051 280.885 8.37358C281.264 8.58239 281.554 8.82102 281.754 9.08949C281.959 9.35369 282.116 9.57102 282.227 9.74148H282.381V8.18182H283.838V18.2812C283.838 19.125 283.646 19.8111 283.263 20.3395C282.884 20.8722 282.372 21.2621 281.729 21.5092C281.089 21.7607 280.378 21.8864 279.594 21.8864ZM279.543 16.4915C280.148 16.4915 280.659 16.353 281.077 16.076C281.494 15.799 281.812 15.4006 282.029 14.8807C282.246 14.3608 282.355 13.7386 282.355 13.0142C282.355 12.3068 282.249 11.6825 282.036 11.1413C281.822 10.6001 281.507 10.1761 281.089 9.86932C280.672 9.5625 280.156 9.40909 279.543 9.40909C278.903 9.40909 278.371 9.57102 277.945 9.89489C277.523 10.2187 277.205 10.6534 276.992 11.1989C276.783 11.7443 276.679 12.3494 276.679 13.0142C276.679 13.696 276.786 14.299 276.999 14.8232C277.216 15.343 277.536 15.7521 277.957 16.0504C278.384 16.3445 278.912 16.4915 279.543 16.4915ZM288.108 12.0938V18H286.599V4.90909H288.108V9.71591H288.236C288.466 9.20881 288.811 8.80611 289.271 8.50781C289.736 8.20526 290.354 8.05398 291.125 8.05398C291.794 8.05398 292.38 8.18821 292.883 8.45668C293.386 8.72088 293.776 9.12784 294.053 9.67756C294.334 10.223 294.474 10.9176 294.474 11.7614V18H292.966V11.8636C292.966 11.0838 292.763 10.4808 292.359 10.0547C291.958 9.62429 291.402 9.40909 290.69 9.40909C290.196 9.40909 289.753 9.51349 289.361 9.7223C288.973 9.93111 288.666 10.2358 288.44 10.6364C288.219 11.0369 288.108 11.5227 288.108 12.0938ZM301.504 8.18182V9.46023H296.416V8.18182H301.504ZM297.899 5.82955H299.407V15.1875C299.407 15.6136 299.469 15.9332 299.593 16.1463C299.721 16.3551 299.883 16.4957 300.079 16.5682C300.279 16.6364 300.49 16.6705 300.711 16.6705C300.878 16.6705 301.014 16.6619 301.121 16.6449C301.227 16.6236 301.312 16.6065 301.376 16.5938L301.683 17.9489C301.581 17.9872 301.438 18.0256 301.255 18.0639C301.072 18.1065 300.839 18.1278 300.558 18.1278C300.132 18.1278 299.714 18.0362 299.305 17.853C298.9 17.6697 298.564 17.3906 298.295 17.0156C298.031 16.6406 297.899 16.1676 297.899 15.5966V5.82955ZM310.552 10.3807L309.197 10.7642C309.112 10.5384 308.986 10.3189 308.82 10.1058C308.658 9.88849 308.436 9.70952 308.155 9.56889C307.874 9.42827 307.514 9.35795 307.075 9.35795C306.474 9.35795 305.973 9.49645 305.573 9.77344C305.176 10.0462 304.978 10.3935 304.978 10.8153C304.978 11.1903 305.115 11.4865 305.387 11.7038C305.66 11.9212 306.086 12.1023 306.666 12.2472L308.123 12.6051C309.001 12.8182 309.655 13.1442 310.085 13.5831C310.516 14.0178 310.731 14.5781 310.731 15.2642C310.731 15.8267 310.569 16.3295 310.245 16.7727C309.926 17.2159 309.478 17.5653 308.903 17.821C308.328 18.0767 307.659 18.2045 306.896 18.2045C305.894 18.2045 305.066 17.9872 304.409 17.5526C303.753 17.1179 303.338 16.483 303.163 15.6477L304.595 15.2898C304.731 15.8182 304.989 16.2145 305.368 16.4787C305.752 16.7429 306.252 16.875 306.87 16.875C307.573 16.875 308.132 16.7259 308.545 16.4276C308.963 16.125 309.171 15.7628 309.171 15.3409C309.171 15 309.052 14.7145 308.813 14.4844C308.575 14.25 308.208 14.0753 307.714 13.9602L306.078 13.5767C305.178 13.3636 304.518 13.0334 304.096 12.5859C303.678 12.1342 303.47 11.5696 303.47 10.892C303.47 10.3381 303.625 9.84801 303.936 9.42188C304.252 8.99574 304.68 8.66122 305.221 8.41832C305.767 8.17543 306.384 8.05398 307.075 8.05398C308.046 8.05398 308.809 8.26705 309.363 8.69318C309.921 9.11932 310.318 9.68182 310.552 10.3807ZM318.064 18V8.18182H319.522V9.66477H319.624C319.803 9.17898 320.127 8.7848 320.596 8.48224C321.064 8.17969 321.593 8.02841 322.181 8.02841C322.292 8.02841 322.43 8.03054 322.596 8.0348C322.762 8.03906 322.888 8.04545 322.973 8.05398V9.58807C322.922 9.57528 322.805 9.55611 322.622 9.53054C322.443 9.50071 322.253 9.4858 322.053 9.4858C321.576 9.4858 321.15 9.58594 320.775 9.78622C320.404 9.98224 320.11 10.255 319.892 10.6044C319.679 10.9496 319.573 11.3437 319.573 11.7869V18H318.064ZM328.579 18.2045C327.633 18.2045 326.817 17.9957 326.131 17.5781C325.449 17.1562 324.923 16.5682 324.552 15.8139C324.186 15.0554 324.002 14.1733 324.002 13.1676C324.002 12.1619 324.186 11.2756 324.552 10.5085C324.923 9.73722 325.439 9.13636 326.099 8.70597C326.764 8.27131 327.539 8.05398 328.426 8.05398C328.937 8.05398 329.442 8.1392 329.941 8.30966C330.439 8.48011 330.893 8.7571 331.302 9.14062C331.711 9.51989 332.037 10.0227 332.28 10.6491C332.523 11.2756 332.645 12.0469 332.645 12.9631V13.6023H325.076V12.2983H331.11C331.11 11.7443 331 11.25 330.778 10.8153C330.561 10.3807 330.25 10.0376 329.845 9.78622C329.444 9.5348 328.971 9.40909 328.426 9.40909C327.825 9.40909 327.305 9.55824 326.866 9.85653C326.431 10.1506 326.097 10.5341 325.863 11.0071C325.628 11.4801 325.511 11.9872 325.511 12.5284V13.3977C325.511 14.1392 325.639 14.7678 325.895 15.2834C326.154 15.7947 326.515 16.1847 326.975 16.4531C327.435 16.7173 327.97 16.8494 328.579 16.8494C328.975 16.8494 329.333 16.794 329.653 16.6832C329.977 16.5682 330.256 16.3977 330.49 16.1719C330.725 15.9418 330.906 15.6562 331.034 15.3153L332.491 15.7244C332.338 16.2188 332.08 16.6534 331.718 17.0284C331.355 17.3991 330.908 17.6889 330.375 17.8977C329.843 18.1023 329.244 18.2045 328.579 18.2045ZM341.894 10.3807L340.539 10.7642C340.453 10.5384 340.328 10.3189 340.162 10.1058C340 9.88849 339.778 9.70952 339.497 9.56889C339.216 9.42827 338.855 9.35795 338.417 9.35795C337.816 9.35795 337.315 9.49645 336.914 9.77344C336.518 10.0462 336.32 10.3935 336.32 10.8153C336.32 11.1903 336.456 11.4865 336.729 11.7038C337.002 11.9212 337.428 12.1023 338.007 12.2472L339.465 12.6051C340.343 12.8182 340.997 13.1442 341.427 13.5831C341.858 14.0178 342.073 14.5781 342.073 15.2642C342.073 15.8267 341.911 16.3295 341.587 16.7727C341.267 17.2159 340.82 17.5653 340.245 17.821C339.669 18.0767 339 18.2045 338.238 18.2045C337.236 18.2045 336.407 17.9872 335.751 17.5526C335.095 17.1179 334.679 16.483 334.505 15.6477L335.936 15.2898C336.073 15.8182 336.331 16.2145 336.71 16.4787C337.093 16.7429 337.594 16.875 338.212 16.875C338.915 16.875 339.473 16.7259 339.887 16.4276C340.304 16.125 340.513 15.7628 340.513 15.3409C340.513 15 340.394 14.7145 340.155 14.4844C339.917 14.25 339.55 14.0753 339.056 13.9602L337.419 13.5767C336.52 13.3636 335.86 13.0334 335.438 12.5859C335.02 12.1342 334.811 11.5696 334.811 10.892C334.811 10.3381 334.967 9.84801 335.278 9.42188C335.593 8.99574 336.022 8.66122 336.563 8.41832C337.108 8.17543 337.726 8.05398 338.417 8.05398C339.388 8.05398 340.151 8.26705 340.705 8.69318C341.263 9.11932 341.659 9.68182 341.894 10.3807ZM348.46 18.2045C347.514 18.2045 346.698 17.9957 346.012 17.5781C345.33 17.1562 344.804 16.5682 344.433 15.8139C344.067 15.0554 343.883 14.1733 343.883 13.1676C343.883 12.1619 344.067 11.2756 344.433 10.5085C344.804 9.73722 345.319 9.13636 345.98 8.70597C346.645 8.27131 347.42 8.05398 348.307 8.05398C348.818 8.05398 349.323 8.1392 349.822 8.30966C350.32 8.48011 350.774 8.7571 351.183 9.14062C351.592 9.51989 351.918 10.0227 352.161 10.6491C352.404 11.2756 352.525 12.0469 352.525 12.9631V13.6023H344.957V12.2983H350.991C350.991 11.7443 350.881 11.25 350.659 10.8153C350.442 10.3807 350.131 10.0376 349.726 9.78622C349.325 9.5348 348.852 9.40909 348.307 9.40909C347.706 9.40909 347.186 9.55824 346.747 9.85653C346.312 10.1506 345.978 10.5341 345.743 11.0071C345.509 11.4801 345.392 11.9872 345.392 12.5284V13.3977C345.392 14.1392 345.52 14.7678 345.775 15.2834C346.035 15.7947 346.395 16.1847 346.856 16.4531C347.316 16.7173 347.851 16.8494 348.46 16.8494C348.856 16.8494 349.214 16.794 349.534 16.6832C349.858 16.5682 350.137 16.3977 350.371 16.1719C350.606 15.9418 350.787 15.6562 350.915 15.3153L352.372 15.7244C352.219 16.2188 351.961 16.6534 351.599 17.0284C351.236 17.3991 350.789 17.6889 350.256 17.8977C349.724 18.1023 349.125 18.2045 348.46 18.2045ZM354.82 18V8.18182H356.278V9.66477H356.38C356.559 9.17898 356.883 8.7848 357.351 8.48224C357.82 8.17969 358.349 8.02841 358.937 8.02841C359.047 8.02841 359.186 8.03054 359.352 8.0348C359.518 8.03906 359.644 8.04545 359.729 8.05398V9.58807C359.678 9.57528 359.561 9.55611 359.378 9.53054C359.199 9.50071 359.009 9.4858 358.809 9.4858C358.331 9.4858 357.905 9.58594 357.53 9.78622C357.16 9.98224 356.866 10.255 356.648 10.6044C356.435 10.9496 356.329 11.3437 356.329 11.7869V18H354.82ZM369.845 8.18182L366.214 18H364.68L361.049 8.18182H362.686L365.396 16.0057H365.498L368.208 8.18182H369.845ZM375.601 18.2045C374.655 18.2045 373.839 17.9957 373.153 17.5781C372.471 17.1562 371.944 16.5682 371.574 15.8139C371.207 15.0554 371.024 14.1733 371.024 13.1676C371.024 12.1619 371.207 11.2756 371.574 10.5085C371.944 9.73722 372.46 9.13636 373.121 8.70597C373.785 8.27131 374.561 8.05398 375.447 8.05398C375.959 8.05398 376.464 8.1392 376.962 8.30966C377.461 8.48011 377.915 8.7571 378.324 9.14062C378.733 9.51989 379.059 10.0227 379.302 10.6491C379.545 11.2756 379.666 12.0469 379.666 12.9631V13.6023H372.098V12.2983H378.132C378.132 11.7443 378.021 11.25 377.8 10.8153C377.582 10.3807 377.271 10.0376 376.866 9.78622C376.466 9.5348 375.993 9.40909 375.447 9.40909C374.846 9.40909 374.327 9.55824 373.888 9.85653C373.453 10.1506 373.118 10.5341 372.884 11.0071C372.65 11.4801 372.532 11.9872 372.532 12.5284V13.3977C372.532 14.1392 372.66 14.7678 372.916 15.2834C373.176 15.7947 373.536 16.1847 373.996 16.4531C374.456 16.7173 374.991 16.8494 375.601 16.8494C375.997 16.8494 376.355 16.794 376.675 16.6832C376.998 16.5682 377.278 16.3977 377.512 16.1719C377.746 15.9418 377.927 15.6562 378.055 15.3153L379.513 15.7244C379.359 16.2188 379.101 16.6534 378.739 17.0284C378.377 17.3991 377.93 17.6889 377.397 17.8977C376.864 18.1023 376.265 18.2045 375.601 18.2045ZM385.668 18.2045C384.85 18.2045 384.128 17.9979 383.501 17.5845C382.875 17.1669 382.385 16.5788 382.031 15.8203C381.677 15.0575 381.501 14.1562 381.501 13.1165C381.501 12.0852 381.677 11.1903 382.031 10.4318C382.385 9.6733 382.877 9.08736 383.508 8.67401C384.138 8.26065 384.867 8.05398 385.694 8.05398C386.333 8.05398 386.838 8.16051 387.209 8.37358C387.584 8.58239 387.869 8.82102 388.065 9.08949C388.265 9.35369 388.421 9.57102 388.532 9.74148H388.66V4.90909H390.168V18H388.711V16.4915H388.532C388.421 16.6705 388.263 16.8963 388.059 17.169C387.854 17.4375 387.562 17.6783 387.183 17.8913C386.804 18.1001 386.299 18.2045 385.668 18.2045ZM385.873 16.8494C386.478 16.8494 386.989 16.6918 387.407 16.3764C387.824 16.0568 388.142 15.6158 388.359 15.0533C388.577 14.4865 388.685 13.8324 388.685 13.0909C388.685 12.358 388.579 11.7166 388.366 11.1669C388.153 10.6129 387.837 10.1825 387.42 9.87571C387.002 9.56463 386.486 9.40909 385.873 9.40909C385.233 9.40909 384.701 9.57315 384.275 9.90128C383.853 10.2251 383.535 10.6662 383.322 11.2244C383.113 11.7784 383.009 12.4006 383.009 13.0909C383.009 13.7898 383.116 14.4247 383.329 14.9957C383.546 15.5625 383.866 16.0142 384.287 16.3509C384.714 16.6832 385.242 16.8494 385.873 16.8494ZM394.24 18.1023C393.925 18.1023 393.654 17.9893 393.428 17.7635C393.202 17.5376 393.089 17.267 393.089 16.9517C393.089 16.6364 393.202 16.3658 393.428 16.1399C393.654 15.9141 393.925 15.8011 394.24 15.8011C394.555 15.8011 394.826 15.9141 395.052 16.1399C395.278 16.3658 395.39 16.6364 395.39 16.9517C395.39 17.1605 395.337 17.3523 395.231 17.527C395.128 17.7017 394.99 17.8423 394.815 17.9489C394.645 18.0511 394.453 18.1023 394.24 18.1023Z" fill="#959595"/>
<defs>
<clipPath id="clip0_3498_116">
<rect width="20" height="20" fill="white" transform="translate(0 2)"/>
</clipPath>
</defs>
</svg>
