<svg width="125" height="55" viewBox="0 0 125 55" fill="none" xmlns="http://www.w3.org/2000/svg">
<rect width="125" height="55" rx="2" fill="black"/>
<path d="M40.0615 8.5L39.75 9.20312L36.1455 17.3203L36.0137 17.6172H21.2598V22.9717H34.4111L34.1465 23.6523L31.3057 30.9668L31.1816 31.2861H21.2598V46.498H20.7598L12.1455 46.5H11.6475L11.6455 46.002L11.5 9.00195L11.498 8.5H40.0615ZM58.6787 8.53125L58.791 8.87598L70.7832 45.5264V8.5332H81.2578L81.4082 8.72168L92.5068 22.6572L103.093 8.73047L103.242 8.5332H113.504L113.5 9.03613L113.245 46.001L113.241 46.498H112.745L103.777 46.5H103.283L103.276 46.0068L103.009 25.9434L92.9141 39.2246L92.5254 39.7363L92.125 39.2334L81.5166 25.9141V46.5H70.7832V46.498H59.3037L59.1973 46.1416L57.1865 39.4219H45.8477L43.8369 46.1416L43.7305 46.498H31.9326L32.1465 45.8428L44.2422 8.87598L44.3555 8.53125H58.6787ZM48.3936 30.9131H54.6396L51.5166 20.4766L48.3936 30.9131Z" fill="url(#paint0_linear_3407_64)"/>
<path d="M40.0615 8.5L39.75 9.20312L36.1455 17.3203L36.0137 17.6172H21.2598V22.9717H34.4111L34.1465 23.6523L31.3057 30.9668L31.1816 31.2861H21.2598V46.498H20.7598L12.1455 46.5H11.6475L11.6455 46.002L11.5 9.00195L11.498 8.5H40.0615ZM58.6787 8.53125L58.791 8.87598L70.7832 45.5264V8.5332H81.2578L81.4082 8.72168L92.5068 22.6572L103.093 8.73047L103.242 8.5332H113.504L113.5 9.03613L113.245 46.001L113.241 46.498H112.745L103.777 46.5H103.283L103.276 46.0068L103.009 25.9434L92.9141 39.2246L92.5254 39.7363L92.125 39.2334L81.5166 25.9141V46.5H70.7832V46.498H59.3037L59.1973 46.1416L57.1865 39.4219H45.8477L43.8369 46.1416L43.7305 46.498H31.9326L32.1465 45.8428L44.2422 8.87598L44.3555 8.53125H58.6787ZM48.3936 30.9131H54.6396L51.5166 20.4766L48.3936 30.9131Z" fill="white"/>
<path d="M40.0615 8.5L39.75 9.20312L36.1455 17.3203L36.0137 17.6172H21.2598V22.9717H34.4111L34.1465 23.6523L31.3057 30.9668L31.1816 31.2861H21.2598V46.498H20.7598L12.1455 46.5H11.6475L11.6455 46.002L11.5 9.00195L11.498 8.5H40.0615ZM58.6787 8.53125L58.791 8.87598L70.7832 45.5264V8.5332H81.2578L81.4082 8.72168L92.5068 22.6572L103.093 8.73047L103.242 8.5332H113.504L113.5 9.03613L113.245 46.001L113.241 46.498H112.745L103.777 46.5H103.283L103.276 46.0068L103.009 25.9434L92.9141 39.2246L92.5254 39.7363L92.125 39.2334L81.5166 25.9141V46.5H70.7832V46.498H59.3037L59.1973 46.1416L57.1865 39.4219H45.8477L43.8369 46.1416L43.7305 46.498H31.9326L32.1465 45.8428L44.2422 8.87598L44.3555 8.53125H58.6787ZM48.3936 30.9131H54.6396L51.5166 20.4766L48.3936 30.9131Z" stroke="black"/>
<defs>
<linearGradient id="paint0_linear_3407_64" x1="63.3129" y1="-4.83456" x2="63.3129" y2="58.7023" gradientUnits="userSpaceOnUse">
<stop/>
<stop offset="1" stop-color="#666666"/>
</linearGradient>
</defs>
</svg>
